<svg id="visual" viewBox="0 0 900 900" width="900" height="900" xmlns="http://www.w3.org/2000/svg" xmlns:xlink="http://www.w3.org/1999/xlink" version="1.1"><rect x="0" y="0" width="900" height="900" fill="#ffffff"></rect><path d="M473 900L478.3 878.5C483.7 857 494.3 814 501 771.2C507.7 728.3 510.3 685.7 506.3 642.8C502.3 600 491.7 557 488.3 514.2C485 471.3 489 428.7 489 385.8C489 343 485 300 470.3 257.2C455.7 214.3 430.3 171.7 422.3 128.8C414.3 86 423.7 43 428.3 21.5L433 0L900 0L900 21.5C900 43 900 86 900 128.8C900 171.7 900 214.3 900 257.2C900 300 900 343 900 385.8C900 428.7 900 471.3 900 514.2C900 557 900 600 900 642.8C900 685.7 900 728.3 900 771.2C900 814 900 857 900 878.5L900 900Z" fill="#5bf634"></path><path d="M579 900L573.5 878.5C568 857 557 814 552.5 771.2C548 728.3 550 685.7 554 642.8C558 600 564 557 566.7 514.2C569.3 471.3 568.7 428.7 572.7 385.8C576.7 343 585.3 300 576 257.2C566.7 214.3 539.3 171.7 539.3 128.8C539.3 86 566.7 43 580.3 21.5L594 0L900 0L900 21.5C900 43 900 86 900 128.8C900 171.7 900 214.3 900 257.2C900 300 900 343 900 385.8C900 428.7 900 471.3 900 514.2C900 557 900 600 900 642.8C900 685.7 900 728.3 900 771.2C900 814 900 857 900 878.5L900 900Z" fill="#00f1ae"></path><path d="M654 900L656 878.5C658 857 662 814 654.3 771.2C646.7 728.3 627.3 685.7 622.2 642.8C617 600 626 557 627.5 514.2C629 471.3 623 428.7 619.2 385.8C615.3 343 613.7 300 621 257.2C628.3 214.3 644.7 171.7 644.7 128.8C644.7 86 628.3 43 620.2 21.5L612 0L900 0L900 21.5C900 43 900 86 900 128.8C900 171.7 900 214.3 900 257.2C900 300 900 343 900 385.8C900 428.7 900 471.3 900 514.2C900 557 900 600 900 642.8C900 685.7 900 728.3 900 771.2C900 814 900 857 900 878.5L900 900Z" fill="#00e1e4"></path><path d="M721 900L714.7 878.5C708.3 857 695.7 814 690.7 771.2C685.7 728.3 688.3 685.7 695.7 642.8C703 600 715 557 720 514.2C725 471.3 723 428.7 717.2 385.8C711.3 343 701.7 300 698 257.2C694.3 214.3 696.7 171.7 696.8 128.8C697 86 695 43 694 21.5L693 0L900 0L900 21.5C900 43 900 86 900 128.8C900 171.7 900 214.3 900 257.2C900 300 900 343 900 385.8C900 428.7 900 471.3 900 514.2C900 557 900 600 900 642.8C900 685.7 900 728.3 900 771.2C900 814 900 857 900 878.5L900 900Z" fill="#00ccf9"></path><path d="M798 900L801 878.5C804 857 810 814 807.7 771.2C805.3 728.3 794.7 685.7 793 642.8C791.3 600 798.7 557 800 514.2C801.3 471.3 796.7 428.7 795 385.8C793.3 343 794.7 300 791.3 257.2C788 214.3 780 171.7 783.5 128.8C787 86 802 43 809.5 21.5L817 0L900 0L900 21.5C900 43 900 86 900 128.8C900 171.7 900 214.3 900 257.2C900 300 900 343 900 385.8C900 428.7 900 471.3 900 514.2C900 557 900 600 900 642.8C900 685.7 900 728.3 900 771.2C900 814 900 857 900 878.5L900 900Z" fill="#02b3ff"></path></svg>