<svg id="visual"  viewBox="0 0 1280 800" width="1280" height="800" xmlns="http://www.w3.org/2000/svg" xmlns:xlink="http://www.w3.org/1999/xlink" version="1.1"><rect x="0" y="0" width="1280" height="800" fill="#ffffff"></rect><path d="M672 800L679.5 781C687 762 702 724 711.5 685.8C721 647.7 725 609.3 719.3 571.2C713.7 533 698.3 495 693.7 457C689 419 695 381 695 343C695 305 689 267 668.2 228.8C647.3 190.7 611.7 152.3 600.3 114.2C589 76 602 38 608.5 19L615 0L1280 0L1280 19C1280 38 1280 76 1280 114.2C1280 152.3 1280 190.7 1280 228.8C1280 267 1280 305 1280 343C1280 381 1280 419 1280 457C1280 495 1280 533 1280 571.2C1280 609.3 1280 647.7 1280 685.8C1280 724 1280 762 1280 781L1280 800Z" fill="#5bf634"></path><path d="M824 800L816 781C808 762 792 724 785.5 685.8C779 647.7 782 609.3 787.7 571.2C793.3 533 801.7 495 805.5 457C809.3 419 808.7 381 814.3 343C820 305 832 267 818.7 228.8C805.3 190.7 766.7 152.3 766.8 114.2C767 76 806 38 825.5 19L845 0L1280 0L1280 19C1280 38 1280 76 1280 114.2C1280 152.3 1280 190.7 1280 228.8C1280 267 1280 305 1280 343C1280 381 1280 419 1280 457C1280 495 1280 533 1280 571.2C1280 609.3 1280 647.7 1280 685.8C1280 724 1280 762 1280 781L1280 800Z" fill="#00f1ae"></path><path d="M929 800L932 781C935 762 941 724 930.2 685.8C919.3 647.7 891.7 609.3 884.2 571.2C876.7 533 889.3 495 891.5 457C893.7 419 885.3 381 879.8 343C874.3 305 871.7 267 882 228.8C892.3 190.7 915.7 152.3 915.8 114.2C916 76 893 38 881.5 19L870 0L1280 0L1280 19C1280 38 1280 76 1280 114.2C1280 152.3 1280 190.7 1280 228.8C1280 267 1280 305 1280 343C1280 381 1280 419 1280 457C1280 495 1280 533 1280 571.2C1280 609.3 1280 647.7 1280 685.8C1280 724 1280 762 1280 781L1280 800Z" fill="#00e1e4"></path><path d="M1025 800L1015.8 781C1006.7 762 988.3 724 981.2 685.8C974 647.7 978 609.3 988.7 571.2C999.3 533 1016.7 495 1023.8 457C1031 419 1028 381 1019.7 343C1011.3 305 997.7 267 992.5 228.8C987.3 190.7 990.7 152.3 990.8 114.2C991 76 988 38 986.5 19L985 0L1280 0L1280 19C1280 38 1280 76 1280 114.2C1280 152.3 1280 190.7 1280 228.8C1280 267 1280 305 1280 343C1280 381 1280 419 1280 457C1280 495 1280 533 1280 571.2C1280 609.3 1280 647.7 1280 685.8C1280 724 1280 762 1280 781L1280 800Z" fill="#00ccf9"></path><path d="M1134 800L1138.5 781C1143 762 1152 724 1148.7 685.8C1145.3 647.7 1129.7 609.3 1127.3 571.2C1125 533 1136 495 1137.8 457C1139.7 419 1132.3 381 1129.8 343C1127.3 305 1129.7 267 1125.2 228.8C1120.7 190.7 1109.3 152.3 1114.2 114.2C1119 76 1140 38 1150.5 19L1161 0L1280 0L1280 19C1280 38 1280 76 1280 114.2C1280 152.3 1280 190.7 1280 228.8C1280 267 1280 305 1280 343C1280 381 1280 419 1280 457C1280 495 1280 533 1280 571.2C1280 609.3 1280 647.7 1280 685.8C1280 724 1280 762 1280 781L1280 800Z" fill="#02b3ff"></path></svg>