<svg id="visual" viewBox="0 0 1260 2000" width="1260" height="2000" xmlns="http://www.w3.org/2000/svg" xmlns:xlink="http://www.w3.org/1999/xlink" version="1.1"><rect x="0" y="0" width="1260" height="2000" fill="#ffffff"></rect><path d="M662 2000L669.3 1952.3C676.7 1904.7 691.3 1809.3 700.5 1714.2C709.7 1619 713.3 1524 707.8 1428.8C702.3 1333.7 687.7 1238.3 683.2 1143C678.7 1047.7 684.3 952.3 684.2 857C684 761.7 678 666.3 657.5 571.2C637 476 602 381 590.8 285.8C579.7 190.7 592.3 95.3 598.7 47.7L605 0L1260 0L1260 47.7C1260 95.3 1260 190.7 1260 285.8C1260 381 1260 476 1260 571.2C1260 666.3 1260 761.7 1260 857C1260 952.3 1260 1047.7 1260 1143C1260 1238.3 1260 1333.7 1260 1428.8C1260 1524 1260 1619 1260 1714.2C1260 1809.3 1260 1904.7 1260 1952.3L1260 2000Z" fill="#5bf634"></path><path d="M811 2000L803 1952.3C795 1904.7 779 1809.3 772.7 1714.2C766.3 1619 769.7 1524 775.3 1428.8C781 1333.7 789 1238.3 792.7 1143C796.3 1047.7 795.7 952.3 801.3 857C807 761.7 819 666.3 806 571.2C793 476 755 381 755.2 285.8C755.3 190.7 793.7 95.3 812.8 47.7L832 0L1260 0L1260 47.7C1260 95.3 1260 190.7 1260 285.8C1260 381 1260 476 1260 571.2C1260 666.3 1260 761.7 1260 857C1260 952.3 1260 1047.7 1260 1143C1260 1238.3 1260 1333.7 1260 1428.8C1260 1524 1260 1619 1260 1714.2C1260 1809.3 1260 1904.7 1260 1952.3L1260 2000Z" fill="#00f1ae"></path><path d="M915 2000L917.8 1952.3C920.7 1904.7 926.3 1809.3 915.5 1714.2C904.7 1619 877.3 1524 870 1428.8C862.7 1333.7 875.3 1238.3 877.5 1143C879.7 1047.7 871.3 952.3 866 857C860.7 761.7 858.3 666.3 868.7 571.2C879 476 902 381 902 285.8C902 190.7 879 95.3 867.5 47.7L856 0L1260 0L1260 47.7C1260 95.3 1260 190.7 1260 285.8C1260 381 1260 476 1260 571.2C1260 666.3 1260 761.7 1260 857C1260 952.3 1260 1047.7 1260 1143C1260 1238.3 1260 1333.7 1260 1428.8C1260 1524 1260 1619 1260 1714.2C1260 1809.3 1260 1904.7 1260 1952.3L1260 2000Z" fill="#00e1e4"></path><path d="M1009 2000L1000 1952.3C991 1904.7 973 1809.3 965.8 1714.2C958.7 1619 962.3 1524 972.8 1428.8C983.3 1333.7 1000.7 1238.3 1007.8 1143C1015 1047.7 1012 952.3 1003.8 857C995.7 761.7 982.3 666.3 977.3 571.2C972.3 476 975.7 381 975.8 285.8C976 190.7 973 95.3 971.5 47.7L970 0L1260 0L1260 47.7C1260 95.3 1260 190.7 1260 285.8C1260 381 1260 476 1260 571.2C1260 666.3 1260 761.7 1260 857C1260 952.3 1260 1047.7 1260 1143C1260 1238.3 1260 1333.7 1260 1428.8C1260 1524 1260 1619 1260 1714.2C1260 1809.3 1260 1904.7 1260 1952.3L1260 2000Z" fill="#00ccf9"></path><path d="M1116 2000L1120.3 1952.3C1124.7 1904.7 1133.3 1809.3 1130.2 1714.2C1127 1619 1112 1524 1109.8 1428.8C1107.7 1333.7 1118.3 1238.3 1120.2 1143C1122 1047.7 1115 952.3 1112.5 857C1110 761.7 1112 666.3 1107.5 571.2C1103 476 1092 381 1096.8 285.8C1101.7 190.7 1122.3 95.3 1132.7 47.7L1143 0L1260 0L1260 47.7C1260 95.3 1260 190.7 1260 285.8C1260 381 1260 476 1260 571.2C1260 666.3 1260 761.7 1260 857C1260 952.3 1260 1047.7 1260 1143C1260 1238.3 1260 1333.7 1260 1428.8C1260 1524 1260 1619 1260 1714.2C1260 1809.3 1260 1904.7 1260 1952.3L1260 2000Z" fill="#02b3ff"></path></svg>